# xmcd
# 
# Track frame offsets:
#     150
#     11392
#     19883
#     31661
#     41495
#     52106
#     62588
#     72855
#     84296
#     95322
#     108014
#     117895
#     130154
#     140442
#     153982
#     163974
#     175748
#     188833
#     202571
#     214532
#     224402
#     240087
#     251011
#     261118
#     272346
# 
# Disc length: 3782
# 
# Revision: 0
# Processed by: cddbd v1.5.2PL0 Copyright (c) Steve Scherf et al.
# Submitted via: fre:ac v1.0.31
# 
DISCID=410ec419
DTITLE=Patsy Cline - The Complete Releases 1955-62 Disc 2
DYEAR=0
DGENRE=Country
TTITLE0=Cry Not for Me
TTITLE1=Come on In (And Make Yourself at Home)
TTITLE2=Let the Teardrops Fall
TTITLE3=I'm Blue Again
TTITLE4=Gotta Lotta Rhythm in My Soul
TTITLE5=Lovesick Blues
TTITLE6=How Can I Face Tomorrow
TTITLE7=Crazy Dreams
TTITLE8=There He Goes
TTITLE9=I Fall to Pieces
TTITLE10=Lovin' in Vain
TTITLE11=Crazy
TTITLE12=Who Can I Count On
TTITLE13=She's Got You
TTITLE14=Strange
TTITLE15=When I Get Through with You (You'll Love Me Too)
TTITLE16=Imagine That
TTITLE17=So Wrong
TTITLE18=You're Stronger Than Me
TTITLE19=Heartaches
TTITLE20=Why Can't He Be You
TTITLE21=Leavin On Your Mind
TTITLE22=Tra Le La Le La Triangle
TTITLE23=That Wonderful Someone
TTITLE24=In Care of the Blues
EXTD=
EXTT0=
EXTT1=
EXTT2=
EXTT3=
EXTT4=
EXTT5=
EXTT6=
EXTT7=
EXTT8=
EXTT9=
EXTT10=
EXTT11=
EXTT12=
EXTT13=
EXTT14=
EXTT15=
EXTT16=
EXTT17=
EXTT18=
EXTT19=
EXTT20=
EXTT21=
EXTT22=
EXTT23=
EXTT24=
PLAYORDER=
